<svg xmlns="http://www.w3.org/2000/svg" viewBox="0 0 720 460" role="img" aria-labelledby="title desc">
  <title id="title">Vietnamese study and audio practice scene</title>
  <desc id="desc">A cozy desk with laptop, waveform, notebook, and iced drink for language learning.</desc>
  <defs>
    <linearGradient id="bg" x1="0" y1="0" x2="1" y2="1">
      <stop offset="0" stop-color="#fff7eb"/>
      <stop offset="1" stop-color="#e8efea"/>
    </linearGradient>
    <filter id="shadow" x="-20%" y="-20%" width="140%" height="140%">
      <feDropShadow dx="0" dy="16" stdDeviation="16" flood-color="#1d2e26" flood-opacity=".16"/>
    </filter>
  </defs>
  <rect width="720" height="460" rx="28" fill="url(#bg)"/>
  <circle cx="620" cy="96" r="54" fill="#d9eef1"/>
  <circle cx="92" cy="342" r="72" fill="#f4dfd8"/>
  <g opacity=".52" stroke="#cbd9d4" stroke-width="2">
    <path d="M74 0v460M158 0v460M242 0v460M326 0v460M410 0v460M494 0v460M578 0v460M662 0v460"/>
    <path d="M0 80h720M0 160h720M0 240h720M0 320h720M0 400h720"/>
  </g>
  <g filter="url(#shadow)">
    <ellipse cx="364" cy="366" rx="242" ry="44" fill="#1d2e26" opacity=".13"/>
    <rect x="156" y="122" width="350" height="218" rx="18" fill="#ffffff"/>
    <rect x="184" y="154" width="294" height="148" rx="10" fill="#17201b"/>
    <rect x="204" y="176" width="254" height="92" rx="8" fill="#1f6f78"/>
    <path d="M226 222 h18 l10-24 20 66 18-42 16 22 h26 l14-32 22 48 20-72 18 34 h28" fill="none" stroke="#f7b267" stroke-width="8" stroke-linecap="round" stroke-linejoin="round"/>
    <rect x="264" y="326" width="134" height="20" rx="10" fill="#cbd9d4"/>
    <rect x="110" y="260" width="146" height="96" rx="12" fill="#fbfaf5"/>
    <path d="M132 286 h96M132 312 h78M132 338 h102" stroke="#65746d" stroke-width="7" stroke-linecap="round"/>
    <circle cx="230" cy="278" r="9" fill="#c7533f"/>
    <rect x="522" y="214" width="76" height="122" rx="16" fill="#ffffff"/>
    <rect x="535" y="234" width="50" height="74" rx="10" fill="#7b4d2a"/>
    <rect x="540" y="240" width="40" height="15" rx="8" fill="#f6e4c9"/>
  </g>
  <g fill="none" stroke="#2f7d63" stroke-width="8" stroke-linecap="round">
    <path d="M558 154 c18-18 44-18 62 0"/>
    <path d="M544 132 c28-30 70-30 98 0"/>
    <path d="M530 110 c38-42 98-42 136 0"/>
  </g>
</svg>
